REM DIRINDEX 1\2,1\3\7,1\3\8,1\4\9,1\4\10,1\4\11,1\5\12,1\5\13,1\5\14,1\6\15,1\6\16,1\6\17
REM DIRNAME "folder01","folder02","folder03","folder04","folder05","folder06","folder07","folder08","folder09","folder10","folder11","folder12","folder13","folder14","folder15","folder16","folder17"
TITLE ""
FILE "2Q_t_1201-1217.mp3" MP3
  TRACK 01 AUDIO
    TITLE "0:"
    INDEX 01 00:00:00
  TRACK 02 AUDIO
    TITLE "2:cjc174_4197"
    INDEX 01 00:00:20
  TRACK 03 AUDIO
    TITLE "0:"
    INDEX 01 00:01:69
  TRACK 04 AUDIO
    TITLE "2:cjc174_4198"
    INDEX 01 00:02:44
  TRACK 05 AUDIO
    TITLE "0:"
    INDEX 01 00:03:50
  TRACK 06 AUDIO
    TITLE "7:cjc174_4199"
    INDEX 01 00:04:20
  TRACK 07 AUDIO
    TITLE "0:"
    INDEX 01 00:05:27
  TRACK 08 AUDIO
    TITLE "8:cjc174_4200"
    INDEX 01 00:06:11
  TRACK 09 AUDIO
    TITLE "0:"
    INDEX 01 00:08:67
  TRACK 10 AUDIO
    TITLE "7:cjc174_4201"
    INDEX 01 00:09:37
  TRACK 11 AUDIO
    TITLE "0:"
    INDEX 01 00:10:42
  TRACK 12 AUDIO
    TITLE "8:cjc174_4202"
    INDEX 01 00:11:28
  TRACK 13 AUDIO
    TITLE "0:"
    INDEX 01 00:12:53
  TRACK 14 AUDIO
    TITLE "7:cjc174_4203"
    INDEX 01 00:13:25
  TRACK 15 AUDIO
    TITLE "0:"
    INDEX 01 00:14:24
  TRACK 16 AUDIO
    TITLE "8:cjc174_4204"
    INDEX 01 00:15:10
  TRACK 17 AUDIO
    TITLE "0:"
    INDEX 01 00:16:09
  TRACK 18 AUDIO
    TITLE "7:cjc174_4205"
    INDEX 01 00:16:54
  TRACK 19 AUDIO
    TITLE "0:"
    INDEX 01 00:17:64
  TRACK 20 AUDIO
    TITLE "8:cjc174_4206"
    INDEX 01 00:18:45
  TRACK 21 AUDIO
    TITLE "0:"
    INDEX 01 00:21:01
  TRACK 22 AUDIO
    TITLE "7:cjc174_4207"
    INDEX 01 00:21:46
  TRACK 23 AUDIO
    TITLE "0:"
    INDEX 01 00:22:51
  TRACK 24 AUDIO
    TITLE "8:cjc174_4208"
    INDEX 01 00:23:27
  TRACK 25 AUDIO
    TITLE "0:"
    INDEX 01 00:24:56
  TRACK 26 AUDIO
    TITLE "7:cjc174_4209"
    INDEX 01 00:25:26
  TRACK 27 AUDIO
    TITLE "0:"
    INDEX 01 00:26:27
  TRACK 28 AUDIO
    TITLE "8:cjc174_4210"
    INDEX 01 00:27:11
  TRACK 29 AUDIO
    TITLE "0:"
    INDEX 01 00:29:49
  TRACK 30 AUDIO
    TITLE "7:cjc174_4211"
    INDEX 01 00:30:19
  TRACK 31 AUDIO
    TITLE "0:"
    INDEX 01 00:31:28
  TRACK 32 AUDIO
    TITLE "8:cjc174_4212"
    INDEX 01 00:32:01
  TRACK 33 AUDIO
    TITLE "0:"
    INDEX 01 00:33:22
  TRACK 34 AUDIO
    TITLE "7:cjc174_4213"
    INDEX 01 00:33:67
  TRACK 35 AUDIO
    TITLE "0:"
    INDEX 01 00:35:09
  TRACK 36 AUDIO
    TITLE "8:cjc174_4214"
    INDEX 01 00:35:56
  TRACK 37 AUDIO
    TITLE "0:"
    INDEX 01 00:37:09
  TRACK 38 AUDIO
    TITLE "7:cjc174_4215"
    INDEX 01 00:37:57
  TRACK 39 AUDIO
    TITLE "0:"
    INDEX 01 00:38:40
  TRACK 40 AUDIO
    TITLE "8:cjc174_4216"
    INDEX 01 00:39:24
  TRACK 41 AUDIO
    TITLE "0:"
    INDEX 01 00:41:50
  TRACK 42 AUDIO
    TITLE "7:cjc174_4217"
    INDEX 01 00:42:22
  TRACK 43 AUDIO
    TITLE "0:"
    INDEX 01 00:43:40
  TRACK 44 AUDIO
    TITLE "8:cjc174_4218"
    INDEX 01 00:44:21
  TRACK 45 AUDIO
    TITLE "0:"
    INDEX 01 00:45:52
  TRACK 46 AUDIO
    TITLE "7:cjc174_4219"
    INDEX 01 00:46:22
  TRACK 47 AUDIO
    TITLE "0:"
    INDEX 01 00:47:27
  TRACK 48 AUDIO
    TITLE "8:cjc174_4220"
    INDEX 01 00:48:03
  TRACK 49 AUDIO
    TITLE "0:"
    INDEX 01 00:49:09
  TRACK 50 AUDIO
    TITLE "7:cjc174_4221"
    INDEX 01 00:49:56
  TRACK 51 AUDIO
    TITLE "0:"
    INDEX 01 00:51:00
  TRACK 52 AUDIO
    TITLE "8:cjc174_4222"
    INDEX 01 00:51:51
  TRACK 53 AUDIO
    TITLE "0:"
    INDEX 01 00:54:55
  TRACK 54 AUDIO
    TITLE "7:cjc174_4223"
    INDEX 01 00:55:25
  TRACK 55 AUDIO
    TITLE "0:"
    INDEX 01 00:56:44
  TRACK 56 AUDIO
    TITLE "8:cjc174_4224"
    INDEX 01 00:57:18
  TRACK 57 AUDIO
    TITLE "0:"
    INDEX 01 00:58:55
  TRACK 58 AUDIO
    TITLE "7:cjc174_4225"
    INDEX 01 00:59:27
  TRACK 59 AUDIO
    TITLE "0:"
    INDEX 01 01:00:28
  TRACK 60 AUDIO
    TITLE "8:cjc174_4226"
    INDEX 01 01:01:06
  TRACK 61 AUDIO
    TITLE "0:"
    INDEX 01 01:02:47
  TRACK 62 AUDIO
    TITLE "7:cjc174_4227"
    INDEX 01 01:03:19
  TRACK 63 AUDIO
    TITLE "0:"
    INDEX 01 01:04:44
  TRACK 64 AUDIO
    TITLE "8:cjc174_4228"
    INDEX 01 01:05:22
  TRACK 65 AUDIO
    TITLE "0:"
    INDEX 01 01:07:69
  TRACK 66 AUDIO
    TITLE "7:cjc174_4229"
    INDEX 01 01:08:41
  TRACK 67 AUDIO
    TITLE "0:"
    INDEX 01 01:09:37
  TRACK 68 AUDIO
    TITLE "8:cjc174_4230"
    INDEX 01 01:10:11
  TRACK 69 AUDIO
    TITLE "0:"
    INDEX 01 01:11:40
  TRACK 70 AUDIO
    TITLE "7:cjc174_4231"
    INDEX 01 01:12:10
  TRACK 71 AUDIO
    TITLE "0:"
    INDEX 01 01:13:19
  TRACK 72 AUDIO
    TITLE "8:cjc174_4232"
    INDEX 01 01:13:74
  TRACK 73 AUDIO
    TITLE "0:"
    INDEX 01 01:15:34
